<svg width="64" height="64" xmlns="http://www.w3.org/2000/svg">

 <g>
  <title>background</title>
  <rect fill="none" id="canvas_background" height="402" width="582" y="-1" x="-1"/>
 </g>
 <g>
  <title>Layer 1</title>
  <path id="svg_3" fill="none" d="m32.001,63.251c-17.23,0 -31.25,-14.02 -31.25,-31.25s14.02,-31.25 31.25,-31.25s31.25,14.02 31.25,31.25s-14.02,31.25 -31.25,31.25z"/>
  <path id="svg_4" fill="none" d="m32,1.5c16.818,0 30.5,13.682 30.5,30.5s-13.682,30.5 -30.5,30.5s-30.5,-13.682 -30.5,-30.5s13.682,-30.5 30.5,-30.5m0,-1.5c-17.673,0 -32,14.327 -32,32c0,17.673 14.327,32 32,32s32,-14.327 32,-32c0,-17.673 -14.327,-32 -32,-32l0,0z"/>
  <path stroke="null" id="svg_6" fill="#ffffff" d="m17.985731,12.231235l-14.547622,0l8.596411,14.281819l-11.461881,17.802334l14.545673,0l11.459932,-17.800502l-8.592512,-14.283652zm29.533836,-11.386237l-22.923762,37.882649l14.769842,24.427354l15.432604,0l-14.771791,-24.427354l22.923762,-37.882649l-15.430655,0l0,0z"/>
 </g>
</svg>