<svg width="1792.0000000000002" height="1792.0000000000002" xmlns="http://www.w3.org/2000/svg">

 <g>
  <title>background</title>
  <rect fill="none" id="canvas_background" height="402" width="582" y="-1" x="-1"/>
 </g>
 <g>
  <title>Layer 1</title>
  <path fill="#ffffff" stroke="null" id="svg_1" d="m1099,1241.902182l0,208.377733q0,66.167337 -39,66.167337q-23,0 -45,-21.726588l0,-297.25923q22,-21.726588 45,-21.726588q39,0 39,66.167337zm338,0.987572l0,45.428321l-90,0l0,-45.428321q0,-67.154909 45,-67.154909t45,67.154909zm-966,-215.290738l107,0l0,-92.831786l-312,0l0,92.831786l105,0l0,561.928578l100,0l0,-561.928578zm288,561.928578l89,0l0,-487.860663l-89,0l0,373.302289q-30,41.478032 -57,41.478032q-18,0 -21,-20.739016q-1,-2.962717 -1,-34.565027l0,-359.476278l-89,0l0,386.140728q0,48.391037 8,72.09277q12,36.540171 58,36.540171q48,0 102,-60.241904l0,53.328898zm429,-146.160685l0,-194.551722q0,-72.09277 -9,-97.769647q-17,-55.304043 -71,-55.304043q-50,0 -93,53.328898l0,-214.303166l-89,0l0,654.760364l89,0l0,-47.403465q45,54.316471 93,54.316471q54,0 71,-54.316471q9,-26.664449 9,-98.757219zm338,-9.875722l0,-12.838439l-91,0q0,50.366182 -2,60.241904q-7,35.552599 -40,35.552599q-46,0 -46,-68.142481l0,-85.918781l179,0l0,-101.719936q0,-78.018203 -27,-114.558374q-39,-50.366182 -106,-50.366182q-68,0 -107,50.366182q-28,36.540171 -28,114.558374l0,170.849989q0,78.018203 29,114.558374q39,50.366182 108,50.366182q72,0 108,-52.341326q18,-26.664449 21,-53.328898q2,-8.88815 2,-57.279187zm-608,-901.653412l0,-207.390161q0,-68.142481 -43,-68.142481t-43,68.142481l0,207.390161q0,69.130054 43,69.130054t43,-69.130054zm719,741.666717q0,231.091893 -26,345.650268q-14,58.266759 -58,97.769647t-102,45.428321q-184,20.739016 -555,20.739016t-555,-20.739016q-58,-5.925433 -102.5,-45.428321t-57.5,-97.769647q-26,-110.608086 -26,-345.650268q0,-231.091893 26,-345.650268q14,-58.266759 58,-97.769647t103,-46.415893q183,-19.751444 554,-19.751444t555,19.751444q58,6.913005 102.5,46.415893t57.5,97.769647q26,110.608086 26,345.650268zm-998,-1260.142118l102,0l-121,394.041305l0,267.632064l-100,0l0,-267.632064q-14,-73.080342 -61,-209.365305q-37,-101.719936 -65,-184.676l106,0l71,259.731487l68,-259.731487zm370,328.86154l0,172.825134q0,79.993348 -28,116.533519q-37,50.366182 -106,50.366182q-67,0 -105,-50.366182q-28,-37.527743 -28,-116.533519l0,-172.825134q0,-79.005775 28,-115.545947q38,-50.366182 105,-50.366182q69,0 106,50.366182q28,36.540171 28,115.545947zm335,-159.986695l0,492.798524l-91,0l0,-54.316471q-53,61.229476 -103,61.229476q-46,0 -59,-36.540171q-8,-23.701733 -8,-74.067914l0,-389.103444l91,0l0,362.438995q0,32.589882 1,34.565027q3,21.726588 21,21.726588q27,0 57,-42.465604l0,-376.265006l91,0z"/>
 </g>
</svg>