<svg width="24" height="24" xmlns="http://www.w3.org/2000/svg">

 <g>
  <title>background</title>
  <rect fill="none" id="canvas_background" height="402" width="582" y="-1" x="-1"/>
 </g>
 <g>
  <title>Layer 1</title>
  <path stroke="null" fill="#ffffff" transform="rotate(-179.72955322265625 11.728270530700684,12.384866714477539) " id="svg_1" d="m13.054777,4.085762c-0.339586,0 -0.679171,0.119261 -0.93784,0.359013c-0.258669,0.240981 -0.388666,0.555733 -0.388666,0.870484l0,3.146283c-5.969277,0.612289 -10.612049,5.297902 -10.612049,10.992932l0,1.229497c2.978006,-4.208568 6.964157,-4.819628 10.612049,-4.904463l0,3.060218c0,0.313522 0.129998,0.629502 0.388666,0.869254s0.598254,0.360243 0.93784,0.360243s0.679171,-0.120491 0.93784,-0.360243l8.347703,-7.631487l-8.347703,-7.632717c-0.258669,-0.239752 -0.598254,-0.359013 -0.93784,-0.359013z"/>
 </g>
</svg>