<svg width="24" height="24" xmlns="http://www.w3.org/2000/svg">

 <g>
  <title>background</title>
  <rect fill="none" id="canvas_background" height="402" width="582" y="-1" x="-1"/>
 </g>
 <g>
  <title>Layer 1</title>
  <path stroke="null" id="svg_1" fill="#ffffff" d="m23.169459,0.293485l-22.556308,0c-0.296852,0 -0.537055,0.236336 -0.537055,0.528409l0,3.170453c0,0.292073 0.240203,0.528409 0.537055,0.528409l3.757816,0c-0.027282,4.857853 -0.424821,16.191292 -2.029165,18.164053c-0.129022,0.158935 -0.153673,0.376185 -0.064511,0.559374c0.089677,0.182671 0.277443,0.299291 0.48408,0.299291l3.22233,0c0.163114,0 0.317303,-0.072762 0.41958,-0.198153c2.050658,-2.522846 2.246812,-15.662365 2.264127,-18.824564l6.446228,0l0,15.323856c0,2.03933 1.686686,3.698862 3.759385,3.698862l3.22233,0c0.172545,0 0.334607,-0.081533 0.435831,-0.219311c0.100698,-0.137777 0.128496,-0.315291 0.073426,-0.476287l-1.07411,-3.170453c-0.0729,-0.215696 -0.277969,-0.36122 -0.509257,-0.36122l-1.072542,0.000518l-0.000516,0c-0.295799,0 -0.537055,-0.236854 -0.537055,-0.527891l-0.001053,-14.268074l3.759385,0c0.296852,0 0.537055,-0.236336 0.537055,-0.528409l0,-3.170453c0,-0.292073 -0.240203,-0.528409 -0.537055,-0.528409z"/>
 </g>
</svg>