<svg width="96" height="96" xmlns="http://www.w3.org/2000/svg">

 <g>
  <title>background</title>
  <rect fill="none" id="canvas_background" height="98" width="98" y="-1" x="-1"/>
 </g>
 <g>
  <title>Layer 1</title>
  <path fill="#ffffff" id="svg_1" d="m79.950869,11.981527l-64,0c-6.627,0 -12,5.373 -12,12l0,48c0,6.627 5.373,12 12,12l64,0c6.627,0 12,-5.373 12,-12l0,-48c0,-6.627 -5.373,-12 -12,-12zm0,8c0.459,0 0.893,0.093 1.303,0.235l-33.303,26.642l-33.303,-26.642c0.411,-0.142 0.844,-0.235 1.303,-0.235l64,0zm0,56l-64,0c-2.21,0 -4,-1.79 -4,-4l0,-43.677l33.501,26.8c0.73,0.585 1.615,0.877 2.499,0.877s1.769,-0.292 2.499,-0.877l33.501,-26.8l0,43.677c0,2.21 -1.79,4 -4,4z"/>
 </g>
</svg>