<svg width="50" height="50" xmlns="http://www.w3.org/2000/svg">

 <g>
  <title>background</title>
  <rect fill="none" id="canvas_background" height="402" width="582" y="-1" x="-1"/>
 </g>
 <g>
  <title>Layer 1</title>
  <rect id="svg_1" width="50" height="50" fill="none"/>
  <path id="svg_2" stroke-width="2" stroke-miterlimit="10" stroke="#000000" fill="#ffffff" d="m30.217,35.252c0,0 4.049,-2.318 5.109,-2.875c1.057,-0.559 2.152,-0.7 2.817,-0.294c1.007,0.616 9.463,6.241 10.175,6.739c0.712,0.499 1.055,1.924 0.076,3.32c-0.975,1.396 -5.473,6.916 -7.379,6.857c-1.909,-0.062 -9.846,-0.236 -24.813,-15.207c-14.964,-14.966 -15.141,-22.905 -15.202,-24.814c-0.061,-1.908 5.459,-6.407 6.855,-7.383c1.398,-0.975 2.825,-0.608 3.321,0.078c0.564,0.781 6.124,9.21 6.736,10.176c0.419,0.66 0.265,1.761 -0.294,2.819c-0.556,1.06 -2.874,5.109 -2.874,5.109s1.634,2.787 7.16,8.312c5.527,5.526 8.313,7.163 8.313,7.163z"/>
 </g>
</svg>